<svg version="1.2" xmlns="http://www.w3.org/2000/svg" viewBox="0 0 885 303" width="885" height="303"><style>.a{fill:#fff}</style><path class="a" d="m49.6 216.3c32.6 0 49.5-19.3 49.6-53.1v-28.1h-31.4v30.2c0 15.1-6.7 20.5-17.2 20.5-10.6 0-17.2-5.4-17.2-20.5l0.1-114.1c0-15 6.6-20.8 17.2-20.8 10.6 0 17.2 5.8 17.2 20.9v22.6h31.4v-20.5c0-33.8-16.9-53.2-49.5-53.2-32.6 0-49.5 19.3-49.5 53.1l-0.1 109.8c0 33.8 16.8 53.2 49.4 53.2z"/><path fill-rule="evenodd" class="a" d="m141 214h-30.4l34-211.2h48.6l33.6 211.2h-33.5l-5.7-38.4h-40.8zm10.1-66.9h32l-15.9-106.9z"/><path class="a" d="m270.9 64.7l24.7 149.4h31.4l23-151.5-0.1 151.5 31.4 0.1 0.2-211.3h-46.2l-22.8 149.9-24.3-150h-46.2l-0.1 211.2 28.9 0.1 0.2-149.4z"/><path class="a" d="m453.4 216.9c32.6 0 49.5-19.2 49.5-53l0.2-160.9h-31.4l-0.2 163c0 15.1-6.6 20.5-17.2 20.5-10.6 0-17.2-5.4-17.2-20.5l0.2-163h-33.2l-0.2 160.8c0 33.8 16.9 53.1 49.5 53.1z"/><path class="a" d="m555.2 61.3l41.2 153 34.1 0.1 0.2-211.3h-29.6l-0.1 126.4-34-126.4-41.6-0.1-0.2 211.3h29.9l0.1-153z"/><path fill-rule="evenodd" class="a" d="m706.9 214.5l-52.5-0.1 0.1-211.2h52.5c33.2 0 49.5 18.4 49.5 52.2l-0.1 106.9c0 33.8-16.4 52.1-49.5 52.2zm-0.6-30.3c10.5 0.1 16.9-5.4 16.9-20.5l0.1-109.8c0-15.1-6.3-20.5-16.9-20.5h-18.7l-0.1 150.9z"/><path fill-rule="evenodd" class="a" d="m799.2 214.5h-30.5l34-211.2h48.6l33.6 211.2h-33.5l-5.7-38.3h-40.7zm10-67h32l-15.9-106.8z"/><path class="a" d="m0.2 247.3h884.7v56h-884.7z"/></svg>