<svg version="1.2" xmlns="http://www.w3.org/2000/svg" viewBox="0 0 120 60" width="120" height="60">
	<title>jquery-ar21-svg</title>
	<style>
		.s0 { fill: #ffffff } 
		.s1 { fill: #131b28 } 
		.s2 { fill: #0868ac } 
	</style>
	<g>
		<path fill-rule="evenodd" class="s0" d="m52.5 26.5l-0.7 2.6c0 0 0.7-2.6 0.7-2.6zm3.8 5.7h-0.8zm-0.2 3.9h-4.9zm1.1-3.9h-0.8zm-0.6 3.6l0.8-3.3zm18-14.9l-1.6 7.5zm-4.1 0l-1.2 5.5z"/>
		<path fill-rule="evenodd" class="s0" d="m74.5 20.9l-3.2 14.8c0 0.2-0.2 0.4-0.4 0.4h-7.5c-4.6-0.2-4.9-3.9-4-7.8l1.6-7.4q0-0.1 0-0.2 0.1 0 0.1-0.1 0.1 0 0.2 0 0-0.1 0.1-0.1h3.5c0.2 0 0.3 0.2 0.2 0.4l-1.1 5.3-0.1 0.6-0.3 1.6c-0.5 2.3-0.7 3.9 1.6 3.9h2.4c0.2 0 0.4-0.1 0.4-0.3l2.4-11.1c0.1-0.2 0.3-0.4 0.4-0.4h3.4c0.2 0 0.3 0.2 0.3 0.4zm13.2 11.4c0.2 0 0.3 0.2 0.3 0.4l-0.4 1.6zm-0.3 3.5l0.3-1.6zm-0.4 0.4h-6.2z"/>
		<path fill-rule="evenodd" class="s0" d="m78.6 29.8h0.5c-0.2 0-0.4 0.3-0.4 0.5 0 0-0.3 1.4-0.1-0.5zm9.1 2.6c0.2 0 0.3 0.1 0.3 0.3l-0.4 1.8zm-6.7 3.9h-0.1zm1.6 0zm-0.8 0h-0.1zm-0.2 0h-0.1zm-0.3 0zm0.4 0h-0.2z"/>
		<path fill-rule="evenodd" class="s0" d="m87.3 35.9l0.3-1.4c0 0-0.3 1.4-0.3 1.4zm-55.7-4.9v-0.4l0.6-2.6-0.5 2.3c0 0-0.1 0.7-0.1 0.7zm6.7-10.2l-0.7 3.1c-0.1 0.2-0.2 0.4-0.4 0.4h-3.8q0 0-0.1-0.1 0 0-0.1 0 0-0.1 0-0.2-0.1 0 0-0.1l0.7-3.1q0 0 0-0.1 0.1-0.1 0.1-0.1 0.1-0.1 0.1-0.1 0.1 0 0.2 0h3.7c0.2 0 0.3 0.1 0.3 0.3zm-11.9 21.6h3.1c-0.9 0-2.4 0-3.1 0zm56.2-6.2l-0.8 0.1zm4.3-0.1h-4.3zm-5.5 0.1h-0.2zm-0.5 0h-0.2zm0.2 0h-0.2zm-44-10.6l-1.1 5z"/>
		<path fill-rule="evenodd" class="s0" d="m37 25.3c0.1 0 0.3 0.2 0.2 0.4l-2.2 10.4c-1 4.6-2.6 6.3-5.5 6.3l-3.1-0.1q0 0.1-0.1 0 0 0-0.1-0.1 0 0 0-0.1 0 0 0-0.1l0.7-3.2q0.1-0.1 0.1-0.2 0 0 0.1-0.1 0.1 0 0.1 0 0.1-0.1 0.2-0.1h1.1c1.2 0.1 1.9-2 1.9-2q0-0.1 0.1-0.2 0-0.1 0-0.1 0-0.1 0-0.2 0.1-0.1 0.1-0.2l1-4.7 0.1-0.7 1.1-4.6q0-0.1 0-0.2 0.1 0 0.1-0.1 0.1 0 0.2 0 0-0.1 0.1-0.1h3.7zm53.2 10.7c-0.2 0-0.3-0.1-0.3-0.3l2.8-13.2zm-57.3-10.4l-0.5 2.4zm61.2 10l1.1-5.6z"/>
		<path fill-rule="evenodd" class="s1" d="m90.4 36.1h-0.3c-0.2 0-0.3-0.2-0.3-0.4l1.4-6.6-1.3 6.3c0 0.2-0.1 0.4 0 0.5 0 0.1 0.3 0.2 0.5 0.2zm3.7-0.7l-0.1 0.3q0 0.1 0 0.2-0.1 0-0.1 0.1-0.1 0-0.2 0 0 0.1-0.1 0.1h-0.3c0.1 0 0.4-0.1 0.5-0.1 0.1-0.1 0.2-0.4 0.3-0.6zm0 0q0 0 0 0zm11.6-12l0.1 0.7c0.1 0.1 0 0.3-0.2 0.3zm-11.1 9.5l0.5-2.5z"/>
		<path fill-rule="evenodd" class="s1" d="m95.1 30.4l0.1-0.6-0.1 0.3c0 0 0 0.3 0 0.3zm0.1-0.6l0.6-2.5-0.6 2.5zm-2.5-7.5l-0.1 0.6-1.4 6.2 1.4-6.6c0 0 0.1-0.2 0.1-0.2zm1.4 13.1l0.5-2.5zm11.4-12.6l0.2 0.6z"/>
		<path fill-rule="evenodd" class="s0" d="m105.9 24.1c0 0.1-0.1 0.3-0.3 0.3h-8.9c-0.2 0-0.4 0.1-0.4 0.3l-1.1 5.4-1.1 5.3c-0.1 0.2-0.2 0.5-0.3 0.6-0.1 0-0.3 0-0.5 0h-2.9c-0.1 0-0.5 0-0.5-0.1 0-0.1 0-0.3 0-0.5l2.8-12.9 0.2-1 0.1-0.6q0-0.1 0-0.1 0.1-0.1 0.1-0.1 0.1-0.1 0.2-0.1 0 0 0.1 0h8.9c2 0 2.9 0.6 3.2 1.8l0.2 1 0.1 0.7zm12.5-5.8c0.2 0 0.3 0.1 0.2 0.2l-10.2 13.6q-0.1 0-0.1 0.1-0.1 0.1-0.1 0.2-0.1 0-0.1 0.1 0 0.1 0 0.2l-0.8 3.1c-0.1 0.1-0.3 0.3-0.5 0.3h-4q0 0-0.1 0 0-0.1-0.1-0.1 0-0.1 0-0.1 0-0.1 0-0.2l0.8-3c0-0.2 0-0.5 0-0.7l-1.8-6.3c-0.1-0.2 0-0.3 0.2-0.3h4.1q0 0 0.1 0 0.1 0 0.1 0.1 0.1 0 0.1 0.1 0.1 0 0.1 0.1l0.4 2c0.1 0.2 0.2 0.2 0.3 0.1l6.3-9.2q0-0.1 0.1-0.1 0.1-0.1 0.1-0.1 0.1-0.1 0.2-0.1 0 0 0.1 0h2.9 0.6c0 0 1.1 0 1.1 0zm-29.4 11.2q-0.1 0-0.1 0.1c0 0.1-0.2 0.2-0.3 0.2h-9.8c-0.3 1.9 0.5 2.6 2.9 2.6h6.1c0.2 0 0.3 0.1 0.3 0.3l-0.7 3.2q0 0.1 0 0.1-0.1 0.1-0.1 0.1-0.1 0.1-0.2 0.1 0 0-0.1 0l-4.3 0.1h-0.9-1c-6.8 0-6.9-3.9-6-8 0.8-4 2.4-8 9-8 6.2 0 6.6 3.7 5.2 9.2zm-6.1-5.5c-1.9 0-2.9 0.9-3.4 2.2v0.1c0 0.2 0.1 0.3 0.2 0.3h5.2c0.2 0 0.3-0.2 0.4-0.4 0.1-1.1-0.3-2.2-2.4-2.2zm-27.5 7.9q0 0 0 0.1c0 0.1 0 0.2 0.2 0.2h1.6q0.1 0 0.1 0 0.1 0.1 0.1 0.1 0.1 0.1 0.1 0.1 0 0.1 0 0.2l-0.9 3.2q0 0.1 0 0.1-0.1 0.1-0.1 0.1-0.1 0.1-0.2 0.1 0 0-0.1 0l-10.1 0.1c-6.6 0-8-4.6-6.9-9.8 1.1-5.3 4-10 10.6-10 6.7 0 8.4 5 7.9 8.4-0.5 2.6-2.3 7.1-2.3 7.1zm-6.5-11.5c-2.9 0.3-4.3 2.4-5.1 5.9-0.7 3.4 0 5.8 3 5.8h3.9q0.1 0 0.2-0.1 0 0 0.1 0 0-0.1 0.1-0.1 0-0.1 0-0.2l0.8-2.6c0 0 0.7-2.6 0.7-2.6l0.1-0.3c1-3.3 0.2-6.1-3.8-5.8z"/>
		<path class="s1" d="m88.2 28.9c0 0.1-0.1 0.2-0.2 0.2-0.1 0-0.2-0.1-0.2-0.2 0-0.1 0.1-0.2 0.2-0.2 0.1 0 0.2 0.1 0.2 0.2z"/>
	</g>
	<path class="s2" d="m4.6 23.1c-1.9 2.6-1.6 6-0.2 8.8l0.1 0.2v0.2h0.1v0.2l0.2 0.2v0.1l0.2 0.3 0.1 0.1 0.2 0.3v0.1l0.2 0.2 0.1 0.1 0.2 0.3h0.1l0.3 0.3v0.1l0.2 0.2 0.1 0.1 0.2 0.2 0.1 0.1 0.3 0.3h0.1l0.2 0.3h0.1l0.3 0.2 0.1 0.1 0.2 0.2 0.1 0.1 0.3 0.1 0.1 0.1 0.4 0.2 0.1 0.1 0.3 0.2h0.1l0.2 0.1 0.1 0.1h0.1l0.3 0.2 0.4 0.1 0.1 0.1 0.4 0.1 0.4 0.2h0.1l0.4 0.1c8.9 1.6 11.5-5.3 11.5-5.3-2.2 2.8-6 3.5-9.7 2.7q-0.2 0-0.4-0.1h-0.1q0-0.1-0.1-0.1 0 0-0.1 0 0 0-0.1 0 0 0-0.1-0.1-0.2 0-0.4-0.1h-0.1q0-0.1-0.1-0.1 0 0-0.1 0 0 0-0.1-0.1 0 0-0.1 0l-0.3-0.2h-0.1q-0.2-0.1-0.3-0.2h-0.1q-0.1-0.1-0.1-0.1-0.1 0-0.1 0 0 0-0.1-0.1 0 0 0 0l-0.1-0.1q-0.1 0-0.1 0-0.1 0-0.1-0.1-0.1 0-0.1 0-0.1-0.1-0.1-0.1-0.1 0-0.1-0.1l-0.3-0.1q0-0.1-0.1-0.1l-0.2-0.2-0.1-0.1-0.3-0.1-0.1-0.1-0.3-0.3q0 0 0 0-0.1-0.1-0.3-0.3h-0.1l-0.2-0.3h-0.1q0-0.1 0-0.1-0.1-0.1-0.1-0.1 0 0-0.1-0.1 0 0 0 0-0.1-0.1-0.1-0.1-0.1 0-0.1-0.1 0 0-0.1-0.1 0 0 0 0l-0.1-0.1-0.2-0.3-0.1-0.1-0.2-0.3c-2-2.7-2.7-6.5-1.1-9.7m4.3-0.4c-1.4 1.9-1.3 4.5-0.3 6.5q0.1 0.2 0.2 0.3 0 0.1 0.1 0.2 0.1 0.2 0.2 0.3 0 0.1 0.1 0.2c0.2 0.3 0.4 0.6 0.7 0.9l0.3 0.3h0.1l0.3 0.3 0.4 0.3v0.1l0.4 0.3 0.3 0.1 0.2 0.2h0.1l0.2 0.2h0.1l0.2 0.1 0.4 0.2 0.3 0.1 0.2 0.1 0.2 0.1h0.2c0.1 0 0.2 0.1 0.3 0.1 6.9 1.2 8.5-4.1 8.5-4.1-1.4 2-4.2 3-7.2 2.2l-0.3-0.1h-0.2l-0.2-0.1h-0.1l-0.3-0.2h-0.1l-0.4-0.2-0.2-0.1h-0.1l-0.2-0.2-0.3-0.1-0.3-0.2-0.3-0.3h-0.1c-1.3-1.1-2.3-2.4-2.8-4-0.5-1.7-0.4-3.5 0.5-5m3.6-0.1c-0.7 1.1-0.8 2.6-0.3 3.8 0.6 1.4 1.8 2.4 3.1 2.9l0.2 0.1h0.1l0.2 0.1c3.8 0.7 4.8-1.9 5.1-2.3-0.9 1.3-2.4 1.6-4.2 1.1q-0.1 0-0.2 0 0 0-0.1-0.1 0 0-0.1 0 0 0-0.1 0-0.1-0.1-0.1-0.1-0.1 0-0.2 0 0-0.1-0.1-0.1-0.1 0-0.1 0-0.2-0.1-0.3-0.2-0.1 0-0.2-0.1-0.1-0.1-0.2-0.2-0.2 0-0.3-0.1c-1.6-1.3-2.7-3.7-1.6-5.6"/>
</svg>