<svg version="1.2" xmlns="http://www.w3.org/2000/svg" viewBox="0 0 256 418" width="256" height="418"><style>.a{fill:#fff}</style><path fill-rule="evenodd" class="a" d="m256 285.4c0 29.9-24.3 54.2-54.2 54.2-29.9 0-54.2-24.3-54.2-54.2 0-5.3 0.8-10.4 2.3-15.2l-25.7-18.2q-4 4.9-8.8 9-4.8 4.1-10.2 7.3-5.5 3.2-11.4 5.3-6 2.1-12.2 3.2v32.8c24.3 5.3 42.6 27 42.6 52.9 0 29.8-24.3 54.1-54.2 54.1-29.9 0-54.2-24.3-54.2-54.1 0-25.9 18.3-47.6 42.6-52.9v-32.8c-33.1-5.6-58.4-34.3-58.4-68.9 0-34.5 25-63.1 57.9-68.9v-31c-24.1-5.6-42.1-27.1-42.1-52.8 0-29.9 24.3-54.2 54.2-54.2 29.9 0 54.2 24.3 54.2 54.2 0 26-18.5 47.8-43.1 53v30.6c17.5 2.9 32.7 12.1 43.4 25.2l25.4-17.8c-1.5-4.9-2.3-10.1-2.3-15.4 0-29.9 24.3-54.2 54.2-54.2 29.9 0 54.2 24.3 54.2 54.2 0 29.9-24.3 54.2-54.2 54.2-16.1 0-30.6-7.2-40.5-18.4l-25.4 17.8c2.6 7.4 4.1 15.2 4.1 23.5 0 8.3-1.6 16.3-4.3 23.8l25.5 18c9.9-11.3 24.4-18.5 40.6-18.5 29.9 0 54.2 24.3 54.2 54.2zm-80.5-154.6c0 14.5 11.8 26.3 26.3 26.3 14.5 0 26.3-11.8 26.3-26.3 0-14.5-11.8-26.3-26.3-26.3-14.5 0-26.3 11.8-26.3 26.3zm-105.5-49.3c14.5 0 26.3-11.8 26.3-26.3 0-14.5-11.8-26.3-26.3-26.3-14.5 0-26.3 11.8-26.3 26.3 0 14.5 11.8 26.3 26.3 26.3zm0 254.7c-14.5 0-26.3 11.8-26.3 26.3 0 14.4 11.8 26.2 26.3 26.2 14.5 0 26.3-11.8 26.3-26.2 0-14.5-11.8-26.3-26.3-26.3zm36.6-128.3c0-20.3-16.4-36.7-36.6-36.7-20.2 0-36.7 16.4-36.7 36.7 0 20.2 16.5 36.6 36.7 36.6 20.2 0 36.6-16.4 36.6-36.6zm121.5 77.5c0-14.5-11.8-26.3-26.3-26.3-14.5 0-26.3 11.8-26.3 26.3 0 14.5 11.8 26.3 26.3 26.3 14.5 0 26.3-11.8 26.3-26.3z"/></svg>